<?xml version="1.0"?>
<svg xmlns="http://www.w3.org/2000/svg" height="512px" viewBox="-1 0 470 470.93996" width="512px" class=""><g><path d="m458.46875 267.488281v128.960938l-112 64.492187-112-64.492187v-128.507813l112-64.492187v-.449219zm0 0" fill="#fedb41" data-original="#FEDB41" class="active-path" style="fill:#FFD900" data-old_color="#ffd900"/><path d="m346.46875 74.488281v128.511719l-112 64.488281-112-64.488281v-128.511719l112-64.488281zm0 0" fill="#00acea" data-original="#00ACEA" class="" style="fill:#FFD900" data-old_color="#ffd900"/><path d="m234.46875 267.941406v128.507813l-112 64.492187-112-64.492187v-128.960938l112-64.488281v.449219zm0 0" fill="#00efd1" data-original="#00EFD1" class="" style="fill:#FFD900" data-old_color="#ffd900"/><path d="m463.460938 258.824219-106.992188-61.605469v-122.730469c0-3.574219-1.910156-6.878906-5.007812-8.664062l-112-64.492188c-3.089844-1.777343-6.890626-1.777343-9.980469 0l-112 64.492188c-3.101563 1.785156-5.011719 5.089843-5.011719 8.664062v122.730469l-106.988281 61.601562c-3.101563 1.785157-5.011719 5.089844-5.011719 8.667969v128.960938c0 3.578125 1.910156 6.882812 5.011719 8.667969l112 64.488281c3.089843 1.777343 6.890625 1.777343 9.980469 0l107.007812-61.617188 107.011719 61.617188c3.089843 1.777343 6.890625 1.777343 9.980469 0l112-64.488281c3.097656-1.785157 5.007812-5.089844 5.007812-8.667969v-128.960938c0-3.574219-1.910156-6.878906-5.007812-8.664062zm-228.992188-237.285157 102 58.730469v116.949219l-102 58.730469-102-58.730469v-116.949219zm-112 427.863282-102-58.730469v-117.402344l101.609375-58.507812 102.390625 58.960937v116.949219zm326-58.730469-102 58.730469-102-58.730469v-116.949219l102.390625-58.957031 101.609375 58.503906zm0 0" fill="#083863" data-original="#083863" class="" style="fill:#020202" data-old_color="#083863"/></g> </svg>
